<svg id="Layer_2" data-name="Layer 2" xmlns="http://www.w3.org/2000/svg" viewBox="0 0 456.29 253.54"><defs><style>.cls-1{fill:#393636;}</style></defs><path class="cls-1" d="M323.45,415.41a4.93,4.93,0,0,1,4.5,3.38L334,416a10.84,10.84,0,0,0-10.57-6.77c-7.29,0-12.8,4.85-12.8,12s5.51,12,12.8,12a11,11,0,0,0,10.57-6.8L328,423.68a4.93,4.93,0,0,1-4.5,3.38,5.83,5.83,0,0,1,0-11.65Z" transform="translate(-168.35 -179.73)"/><polygon class="cls-1" points="187.98 238.09 179.64 238.09 179.64 229.85 172.6 229.85 172.6 253.12 179.64 253.12 179.64 244.22 187.98 244.22 187.98 253.12 195.02 253.12 195.02 229.85 187.98 229.85 187.98 238.09"/><path class="cls-1" d="M387.76,423.05c0,2.23-1.47,4-4.33,4s-4.36-1.78-4.36-4V409.58h-7.15v13.71c0,5.76,3.66,10,11.51,10s11.48-4.22,11.48-10V409.58h-7.15Z" transform="translate(-168.35 -179.73)"/><path class="cls-1" d="M424.26,417.57c0-4.36-2.93-8-8.38-8H403.47v23.26h7v-7.32h2.55l3.21,7.32h8l-4.22-8.23A7.51,7.51,0,0,0,424.26,417.57Zm-9.46,1.82h-4.29v-3.67h4.29c1.19,0,2.31.56,2.31,1.82S416,419.39,414.8,419.39Z" transform="translate(-168.35 -179.73)"/><path class="cls-1" d="M443.15,415.41a4.94,4.94,0,0,1,4.5,3.38l6.07-2.82a10.86,10.86,0,0,0-10.57-6.77c-7.29,0-12.8,4.85-12.8,12s5.51,12,12.8,12a11,11,0,0,0,10.57-6.8l-6.07-2.79a4.94,4.94,0,0,1-4.5,3.38,5.83,5.83,0,0,1,0-11.65Z" transform="translate(-168.35 -179.73)"/><polygon class="cls-1" points="307.68 238.09 299.34 238.09 299.34 229.85 292.29 229.85 292.29 253.12 299.34 253.12 299.34 244.22 307.68 244.22 307.68 253.12 314.72 253.12 314.72 229.85 307.68 229.85 307.68 238.09"/><path class="cls-1" d="M407,298.89h2.45c-.39-1-.75-1.92-1.12-2.85q-3.66-9.39-7.34-18.8l-.18-.39c.72-1.81,1.6-4.05,2.31-5.86.34-.9.7-1.79,1.07-2.73l15.89,19.3,1.5-3.19a.55.55,0,0,0-.11-.45l-7.21-8.76s-5.83-7.08-8.65-10.52l.09-.22c.24-.69.51-1.36.77-2l1.08-2.75,20.52,11.06,1.93-4.08-20.79-11.22.84-2.21.2-.5,26,0a.54.54,0,0,0,.58-.37l1.38-2.94,1.12-2.36h-26.6l5.16-2.9,17.8-9.6,12.58-6.79a1.1,1.1,0,0,0,.39-.41q2.25-4.72,4.48-9.46c.08-.16.15-.32.27-.58l-33,17.79,0,0,45.53-55.3H455.69l-.16.19q-1.54,1.84-3.07,3.7c-2.6,3.16-5.19,6.33-7.8,9.49q-3.3,4-6.62,8l-6.66,8.11q-3.15,3.84-6.31,7.66l-1.39,1.68-.06,0,15.14-38.8-9.18,0h-.46l-.05.15L429,180l-23.64,60.83a10,10,0,0,1-18.72,0L363,180h0l-.08-.21h-2.39l22.38,57.35-.22-.26-10.37-12.64-6.62-8-6.67-8.1-7.34-8.93-7.06-8.56L336,180s0,0,0,0l-.23-.28h-.41c-1,0-2.06,0-3.09,0h-.89c16.61,20.17,33.28,40.43,49.82,60.53l-.18-.09L337.6,216.79l3.13,6.64h0l.08.18.27.18,11.61,6.27,17.73,9.56,13.23,7.13.46.28H351.92l2.38,5.11h0l.25.51h.56l32.07,0h.64l-.19.1-26.29,14.17,2.91,6.12L390.34,259l-1.82,2.35-6.63,8-6.66,8.11c-1.69,2-3.38,4.11-5.08,6.15l-.57.69.17.37,3.57,7.52L394.4,266.6l-4.95,14.71-5.81,14.89-1.05,2.68,8.43,0h1.23l.13-.33q3.36-8.61,6.71-17.19c.17-.45.36-.9.56-1.4l6.92,17.71Z" transform="translate(-168.35 -179.73)"/><polygon class="cls-1" points="158.8 201.95 129.92 201.95 129.92 162.57 118.8 162.57 118.8 208.07 158.8 208.07 158.8 201.95"/><path class="cls-1" d="M411.68,372h7.66c1.07,0,2.17,0,3.26-.05l12.33,15.89h13.4L434.7,370.64a14.36,14.36,0,0,0,6-2.59c3.48-2.47,5-5.91,5-11.14,0-5-1.58-8.61-4.83-11-4.59-3.34-11.21-3.61-19.39-3.61H400.7v45.52h11Zm10.19-6.12H411.68v-18h10.06c8.17,0,14,.63,14,8.84C435.7,364.39,430.84,365.86,421.87,365.86Z" transform="translate(-168.35 -179.73)"/><path class="cls-1" d="M505.18,345.94c-4.77-3.18-10.95-4.54-20.67-4.54-6.91,0-14.75.53-20.55,4.48-5.42,3.69-8.16,10-8.16,18.65s2.67,14.84,8.16,18.58c4.74,3.23,11,4.6,20.74,4.6s15.8-1.35,20.48-4.53h0c5.49-3.76,8.16-9.86,8.16-18.65S510.68,349.64,505.18,345.94Zm-2.82,19c0,13-4.84,17.85-17.85,17.85-12.43,0-17.72-5.55-17.72-18.57s4.83-17.85,17.84-17.85C497.22,346.35,502.36,351.73,502.36,364.92Z" transform="translate(-168.35 -179.73)"/><path class="cls-1" d="M381.89,383.23h0c5.5-3.77,8.17-9.87,8.17-18.68s-2.67-14.9-8.17-18.61c-4.77-3.18-11-4.54-20.7-4.54-6.92,0-14.77.53-20.58,4.48-5.42,3.69-8.17,10-8.17,18.67s2.67,14.87,8.17,18.61c4.76,3.23,11,4.61,20.77,4.61S377.2,386.41,381.89,383.23ZM379.06,365c0,13-4.84,17.87-17.87,17.87-12.44,0-17.75-5.56-17.75-18.59s4.85-17.88,17.88-17.88C373.92,346.35,379.06,351.74,379.06,365Z" transform="translate(-168.35 -179.73)"/><path class="cls-1" d="M564.2,367.82c0,4,0,7.48-3.2,10.23-5.18,4.45-15.32,4.47-20.59,1.52-4.43-2.47-5.27-6.35-5.27-12.65V342.31H523.38v25.31c0,7.2.86,12.05,5.28,15.53h0c5.21,4.07,12,4.63,18.62,4.63,6.18,0,13.2-.54,18.44-4.56,4.56-3.55,5.47-8.6,5.47-15.6V342.31h-7Z" transform="translate(-168.35 -179.73)"/><path class="cls-1" d="M604.81,358.71c-6.26-1.58-12.17-3.06-12.17-6.44,0-2.9,3.35-4.42,10-4.5h19.3V342H602.46c-12.55.19-20.65,5.3-20.65,13,0,9.21,9.68,11.57,18.22,13.66,7,1.7,13,3.17,13,7.64,0,3.75-3.84,5.66-11.41,5.66H581.79v5.73h21.26v0c13.55-.35,21.6-5.65,21.6-14.29C624.65,363.69,613.65,360.93,604.81,358.71Z" transform="translate(-168.35 -179.73)"/><path class="cls-1" d="M245.26,342.21,220.83,387.8h5.46l8-15h0l1.14-2.07h0L243,356.94a2.15,2.15,0,0,1,3.76,0l8.62,15.94H241.68l-2.56,4.77h18.72l5.3,10.14h13.42l-24.49-45.59Z" transform="translate(-168.35 -179.73)"/><path class="cls-1" d="M218.62,342l-8.07,15-8.66,15.95a2.13,2.13,0,0,1-3.73,0l-8.06-14.95-8.34-16H168.35l24.5,45.6h6.8l5.74-10.72L224.08,342Z" transform="translate(-168.35 -179.73)"/></svg>