<svg id="Layer_1" data-name="Layer 1" xmlns="http://www.w3.org/2000/svg" viewBox="0 0 441.57 85.28"><defs><style>.cls-1{fill:#363939;}</style></defs><path class="cls-1" d="M305.31,331.1c0-5.14,3.94-8.61,9.16-8.61a7.75,7.75,0,0,1,7.56,4.84l-4.34,2a3.54,3.54,0,0,0-3.22-2.42,4.17,4.17,0,0,0,0,8.34,3.53,3.53,0,0,0,3.22-2.42l4.34,2a7.85,7.85,0,0,1-7.56,4.87c-5.22,0-9.16-3.49-9.16-8.61" transform="translate(-174.75 -263.37)"/><polygon class="cls-1" points="163.24 76.04 163.24 69.68 157.28 69.68 157.28 76.04 152.23 76.04 152.23 59.4 157.28 59.4 157.28 65.28 163.24 65.28 163.24 59.4 168.28 59.4 168.28 76.04 163.24 76.04"/><path class="cls-1" d="M349.15,332.57v-9.81h5.12v9.64a3.11,3.11,0,0,0,6.21,0v-9.64h5.12v9.79c0,4.14-2.6,7.16-8.21,7.16s-8.24-3-8.24-7.14" transform="translate(-174.75 -263.37)"/><path class="cls-1" d="M380.89,339.41l-2.3-5.24h-1.82v5.24h-5V322.76h8.88c3.89,0,6,2.6,6,5.72a5.37,5.37,0,0,1-3,5l3,5.89Zm.6-11c0-.89-.81-1.29-1.65-1.29h-3.07v2.62h3.07c.84,0,1.65-.4,1.65-1.33" transform="translate(-174.75 -263.37)"/><path class="cls-1" d="M391,331.1c0-5.14,3.94-8.61,9.16-8.61a7.75,7.75,0,0,1,7.56,4.84l-4.34,2a3.53,3.53,0,0,0-3.22-2.42,4.17,4.17,0,0,0,0,8.34,3.52,3.52,0,0,0,3.22-2.42l4.34,2a7.85,7.85,0,0,1-7.56,4.87c-5.22,0-9.16-3.49-9.16-8.61" transform="translate(-174.75 -263.37)"/><polygon class="cls-1" points="248.89 76.04 248.89 69.68 242.93 69.68 242.93 76.04 237.88 76.04 237.88 59.4 242.93 59.4 242.93 65.28 248.89 65.28 248.89 59.4 253.94 59.4 253.94 76.04 248.89 76.04"/><path class="cls-1" d="M238.46,303,271,263.38h-7.31l-.11.14c-.74.88-1.47,1.76-2.19,2.65L255.85,273c-1.58,1.92-3.17,3.83-4.75,5.74l-4.76,5.81L241.83,290l-1,1.2-.05,0,10.84-27.77-6.57,0h-.32l0,.11,0,.09L227.74,307.1a7.19,7.19,0,0,1-13.4,0l-16.93-43.58-.06-.15h-1.71c5.32,13.65,10.72,27.46,16,41l-.16-.19-7.42-9-4.74-5.75-4.77-5.8-5.25-6.38q-2.52-3.08-5.06-6.13l-6.19-7.54h0l-.17-.2h-3.14l35.66,43.32-.14-.07-31-16.73,2.24,4.75h0l.06.13.2.12,8.3,4.5,12.69,6.83,9.47,5.11.32.19h-23l1.71,3.66.17.36h23.81l-.13.07-18.82,10.15,2.08,4.38L217,320.09l-1.31,1.68-4.74,5.74-4.77,5.81-3.63,4.4-.41.49.12.27,2.56,5.37,15.08-18.32-3.54,10.53-4.16,10.65-.75,1.92,6.71,0c.19,0,.24-.09.3-.24,1.59-4.1,3.2-8.2,4.8-12.3.12-.32.25-.64.39-1l5.2,13.3c.06.17.14.22.21.23h1.63l-.8-2q-2.62-6.74-5.26-13.46l-.12-.28,1.65-4.19.76-1.95,11.37,13.81,1.08-2.28a.44.44,0,0,0-.08-.33l-5.16-6.27s-4.17-5.06-6.19-7.53L228,324c.17-.49.36-1,.55-1.46l.77-2L244,328.47l1.39-2.92-14.88-8,.6-1.59.14-.36,18.57,0a.38.38,0,0,0,.41-.26l1-2.11.79-1.69H233l3.69-2.08,12.74-6.86,9-4.86a.78.78,0,0,0,.28-.29l3.21-6.77.19-.42L238.49,303l0,0" transform="translate(-174.75 -263.37)"/><polygon class="cls-1" points="42.71 85.28 43.59 85.28 43.68 85.04 42.71 85.28"/><polygon class="cls-1" points="54.17 85.27 54.29 85.27 53.83 84.41 54.17 85.27"/><polygon class="cls-1" points="54.17 85.27 54.17 85.28 55.92 85.28 54.2 85.25 54.17 85.27"/><polygon class="cls-1" points="231.97 41.91 211.63 41.91 211.63 14.16 203.79 14.16 203.79 46.22 231.97 46.22 231.97 41.91"/><path class="cls-1" d="M473.46,294.12h-7.18v-12.7h7.09c5.76,0,9.83.45,9.83,6.23,0,5.44-3.42,6.47-9.74,6.47m-7.18,4.32h5.4c.75,0,1.52,0,2.29,0l8.69,11.2h9.44l-9.6-12.1a10.14,10.14,0,0,0,4.26-1.83c2.44-1.74,3.54-4.16,3.54-7.85,0-3.53-1.12-6.07-3.4-7.75-3.24-2.35-7.9-2.54-13.67-2.54H458.55V309.6h7.73Z" transform="translate(-174.75 -263.37)"/><path class="cls-1" d="M530.17,293.46c0,9.17-3.41,12.58-12.58,12.58-8.75,0-12.48-3.91-12.48-13.08s3.4-12.58,12.57-12.58c8.87,0,12.49,3.79,12.49,13.08m2-13.37c-3.36-2.24-7.72-3.19-14.57-3.19-4.87,0-10.39.37-14.48,3.15-3.81,2.6-5.75,7-5.75,13.14s1.88,10.46,5.75,13.09c3.35,2.27,7.72,3.24,14.61,3.24s11.14-.95,14.44-3.19h0c3.87-2.65,5.75-6.95,5.75-13.14s-1.88-10.49-5.75-13.1" transform="translate(-174.75 -263.37)"/><path class="cls-1" d="M443.3,293.48c0,9.18-3.42,12.6-12.59,12.6-8.77,0-12.51-3.92-12.51-13.1s3.42-12.6,12.6-12.6c8.87,0,12.5,3.8,12.5,13.1m2,12.88h0c3.88-2.65,5.76-6.95,5.76-13.15s-1.89-10.5-5.76-13.12c-3.36-2.24-7.72-3.19-14.58-3.19-4.88,0-10.41.37-14.5,3.15-3.82,2.6-5.76,7-5.76,13.16s1.88,10.47,5.76,13.11c3.35,2.27,7.72,3.24,14.63,3.24s11.15-.95,14.45-3.2" transform="translate(-174.75 -263.37)"/><path class="cls-1" d="M573.74,295.51c0,2.82,0,5.26-2.26,7.21-3.65,3.13-10.79,3.14-14.51,1.07-3.11-1.75-3.71-4.48-3.71-8.92V277.53H545v17.83c0,5.08.61,8.5,3.72,10.95h0c3.67,2.86,8.47,3.26,13.12,3.26,4.35,0,9.3-.38,13-3.22,3.21-2.5,3.85-6.06,3.85-11V277.53h-4.92Z" transform="translate(-174.75 -263.37)"/><path class="cls-1" d="M602.35,289.09c-4.41-1.11-8.58-2.16-8.58-4.54,0-2,2.37-3.11,7-3.17h13.6v-4.05H600.7c-8.84.13-14.56,3.73-14.56,9.18,0,6.48,6.82,8.15,12.84,9.62,4.92,1.2,9.16,2.24,9.16,5.38,0,2.65-2.7,4-8,4h-14v4h15c9.54-.24,15.22-4,15.22-10.06,0-6.88-7.75-8.83-14-10.39" transform="translate(-174.75 -263.37)"/><path class="cls-1" d="M349,277.46l-17.22,32.13h3.85l5.62-10.54.8-1.46h0l5.33-9.75a1.51,1.51,0,0,1,2.64,0l6.08,11.23H346.5l-1.8,3.36h13.19l3.74,7.15h9.45l-17.26-32.13Z" transform="translate(-174.75 -263.37)"/><path class="cls-1" d="M330.26,277.29l-5.69,10.55-6.1,11.23a1.49,1.49,0,0,1-2.62,0l-5.68-10.53-5.88-11.25h-9.45l17.26,32.12h4.79l4.05-7.55,13.16-24.57Z" transform="translate(-174.75 -263.37)"/></svg>